<svg width="169" height="37" viewBox="0 0 169 37" fill="none" xmlns="http://www.w3.org/2000/svg">
<g clip-path="url(#clip0_164_8)">
<path d="M43.3066 7.80981L43.3273 6.11122C43.3654 2.99705 40.8514 0.452148 37.737 0.452148H6.59075C3.50306 0.452148 1 2.95521 1 6.0429V29.8036C1 32.8912 3.50306 35.3943 6.59075 35.3943H37.8057C40.8934 35.3943 43.3965 32.8913 43.3965 29.8036V28.3795" stroke="#58A9F8" stroke-width="1.83942" stroke-linecap="round"/>
<circle cx="22.897" cy="18.6227" r="9.08496" fill="#58A9F8" fill-opacity="0.2" stroke="#58A9F8" stroke-width="1.39769"/>
<rect x="30.4307" y="4.13086" width="7.35766" height="2.45255" rx="1.22628" fill="#58A9F8"/>
<path d="M42.3354 28.6377C41.2726 28.6377 40.2842 28.542 39.3702 28.3507C38.4562 28.1594 37.691 27.8406 37.0746 27.3942C36.6495 27.0754 36.3201 26.6715 36.0863 26.1827C35.8737 25.6938 35.7674 25.1943 35.7674 24.6841C35.7674 24.0465 35.9481 23.4513 36.3094 22.8987C36.6708 22.346 37.2447 21.9741 38.0311 21.7828C38.1374 21.7615 38.2331 21.7509 38.3181 21.7509C38.4244 21.7296 38.52 21.719 38.605 21.719C39.0301 21.719 39.4021 21.8147 39.7209 22.006C40.061 22.1973 40.2948 22.4204 40.4224 22.6755C40.3374 22.7393 40.2204 22.8562 40.0717 23.0262C39.9229 23.175 39.8272 23.3025 39.7847 23.4088C39.4659 23.9402 39.3065 24.4716 39.3065 25.003C39.3065 25.7257 39.5828 26.3208 40.1354 26.7884C40.7093 27.2348 41.4533 27.458 42.3672 27.458C43.1962 27.458 43.972 27.2561 44.6947 26.8522C45.4387 26.4271 46.0338 25.8638 46.4802 25.1624C46.9478 24.461 47.1816 23.6533 47.1816 22.7393C47.1816 22.0591 47.0222 21.3364 46.7034 20.5712C46.427 19.9123 46.0444 19.3278 45.5556 18.8176C45.0879 18.3075 44.6416 17.8293 44.2165 17.3829C43.6426 16.7665 43.0899 16.1713 42.5585 15.5974C42.0484 15.0023 41.6233 14.3646 41.2832 13.6844C40.9644 12.983 40.805 12.1966 40.805 11.3251C40.805 10.4961 40.975 9.68841 41.3151 8.90196C41.6764 8.1155 42.1866 7.44596 42.8455 6.89331C43.5894 6.25565 44.4397 5.80928 45.3962 5.55422C46.3527 5.29915 47.3517 5.17162 48.3932 5.17162C49.6898 5.17162 50.71 5.34166 51.454 5.68175C52.2192 6.00058 52.7612 6.41506 53.08 6.9252C53.4201 7.43533 53.5901 7.97734 53.5901 8.55124C53.5901 9.10388 53.4626 9.63527 53.2075 10.1454C52.9737 10.6555 52.6443 11.0913 52.2192 11.4526C51.7941 11.7927 51.3264 12.0053 50.8163 12.0903C50.7313 12.1115 50.6463 12.1222 50.5612 12.1222C50.4762 12.1222 50.3806 12.1222 50.2743 12.1222C49.8067 12.1222 49.3922 12.0159 49.0308 11.8033C48.6908 11.5908 48.5207 11.2294 48.5207 10.7193C48.5207 10.6555 48.5207 10.5811 48.5207 10.4961C48.542 10.4111 48.5632 10.3261 48.5845 10.2411C48.9671 10.2411 49.3603 10.1029 49.7642 9.82657C50.168 9.55025 50.4337 9.24204 50.5612 8.90196C50.6675 8.62563 50.7207 8.37057 50.7207 8.13676C50.7207 7.56286 50.455 7.1165 49.9236 6.79766C49.4134 6.45758 48.8077 6.28753 48.1062 6.28753C47.2773 6.28753 46.5333 6.4682 45.8744 6.82955C45.2367 7.16963 44.7372 7.62663 44.3759 8.20052C44.0145 8.75317 43.8339 9.35895 43.8339 10.0179C43.8339 10.6768 44.0358 11.3145 44.4397 11.9309C44.7797 12.4197 45.2049 12.9299 45.715 13.4613C46.2251 13.9714 46.7459 14.4709 47.2773 14.9598C47.8087 15.4274 48.2656 15.8631 48.6482 16.267C49.5197 17.1172 50.1468 17.9887 50.5294 18.8814C50.912 19.7529 51.1033 20.6137 51.1033 21.4639C51.1033 22.4417 50.8694 23.3663 50.4018 24.2378C49.9555 25.088 49.3284 25.8426 48.5207 26.5015C47.713 27.1604 46.7778 27.6812 45.715 28.0638C44.6522 28.4464 43.5257 28.6377 42.3354 28.6377ZM61.3285 28.1913C60.6059 28.1913 60.1064 27.9787 59.83 27.5536C59.575 27.1073 59.4474 26.5971 59.4474 26.0232C59.4474 25.3218 59.5856 24.4822 59.8619 23.5045C60.1382 22.5055 60.4571 21.5065 60.8184 20.5074C61.201 19.4872 61.5411 18.5838 61.8387 17.7974C61.9237 17.6061 61.9662 17.4041 61.9662 17.1916C61.9662 16.9578 61.8918 16.7877 61.743 16.6815C61.5942 16.5752 61.4029 16.522 61.1691 16.522C60.829 16.522 60.4464 16.6283 60.0213 16.8409C59.3624 17.181 58.7354 17.723 58.1402 18.4669C57.5451 19.2109 57.0668 19.9867 56.7055 20.7944C56.3016 21.7084 55.9403 22.6224 55.6214 23.5364C55.3026 24.4503 55.0476 25.1943 54.8563 25.7682C54.7287 26.1295 54.6118 26.5015 54.5055 26.8841C54.3993 27.2667 54.293 27.6387 54.1867 28H51.094C51.094 28 51.1684 27.7343 51.3172 27.2029C51.4447 26.6715 51.6148 26.1401 51.8273 25.6088C52.1887 24.6735 52.55 23.7383 52.9114 22.803C53.294 21.8678 53.6234 21.0388 53.8998 20.3161C53.9848 20.1036 54.1123 19.7104 54.2824 19.1365C54.4737 18.5413 54.6437 17.9249 54.7925 17.2872C54.9625 16.6496 55.0476 16.1288 55.0476 15.725C55.0476 15.4912 55.0157 15.3317 54.9519 15.2467C55.1432 15.2467 55.3558 15.2467 55.5896 15.2467C55.8446 15.2255 56.0784 15.2148 56.291 15.2148C56.5886 15.2148 56.8649 15.2255 57.12 15.2467C57.3963 15.268 57.577 15.3211 57.662 15.4061C57.917 15.5974 58.0446 15.8738 58.0446 16.2351C58.0446 16.4902 57.9914 16.7452 57.8852 17.0003C57.8001 17.2554 57.7364 17.4679 57.6939 17.638C57.9914 17.3616 58.2996 17.0959 58.6185 16.8409C58.9373 16.5858 59.4262 16.2564 60.0851 15.8525C60.4677 15.6187 60.9459 15.4274 61.5198 15.2786C62.0937 15.1298 62.6145 15.0554 63.0821 15.0554C64.2937 15.0554 64.8995 15.6187 64.8995 16.7452C64.8995 16.9365 64.8782 17.1491 64.8357 17.3829C64.8144 17.6167 64.7507 17.8718 64.6444 18.1481C64.5381 18.4882 64.3681 18.9558 64.1343 19.5509C63.9005 20.1461 63.656 20.7838 63.401 21.4639C63.1671 22.1229 62.9652 22.7499 62.7952 23.3451C62.6251 23.9402 62.5401 24.4185 62.5401 24.7798C62.5401 25.2899 62.7314 25.545 63.114 25.545C63.4541 25.545 63.8792 25.3324 64.3893 24.9073C64.8782 24.5035 65.3033 24.0677 65.6647 23.6001C66.111 23.0475 66.5149 22.4629 66.8762 21.8465C67.2588 21.2089 67.5883 20.6244 67.8646 20.093C67.9709 19.9229 68.0453 19.8379 68.0878 19.8379C68.2153 19.8379 68.2791 20.0186 68.2791 20.3799C68.2791 20.55 68.2472 20.7519 68.1834 20.9857C68.1409 21.1982 68.0665 21.4002 67.9603 21.5915C67.6627 22.1016 67.312 22.6649 66.9081 23.2813C66.5043 23.8977 66.0898 24.4928 65.6647 25.0667C65.3671 25.4706 64.9739 25.917 64.485 26.4058C63.9961 26.8947 63.4753 27.3198 62.9227 27.6812C62.3701 28.0213 61.8387 28.1913 61.3285 28.1913ZM76.4586 28.1913C75.7997 28.1913 75.3427 27.9362 75.0876 27.4261C74.8538 26.916 74.7369 26.2889 74.7369 25.545C74.7369 24.8648 74.8007 24.1953 74.9282 23.5364C74.992 23.2388 75.0558 22.9412 75.1195 22.6436C75.2045 22.3248 75.3002 21.9953 75.4065 21.6552C75.0451 22.3142 74.6625 22.9518 74.2587 23.5682C73.8761 24.1846 73.4829 24.7267 73.079 25.1943C72.3988 26.0232 71.6761 26.714 70.9109 27.2667C70.167 27.8193 69.4231 28.0956 68.6791 28.0956C68.084 28.0956 67.5738 27.8831 67.1487 27.458C66.7449 27.0116 66.5429 26.2464 66.5429 25.1624C66.5429 24.0571 66.7342 22.9199 67.1168 21.7509C67.4994 20.5818 68.0308 19.4978 68.711 18.4988C69.4124 17.4785 70.2308 16.6602 71.166 16.0438C72.1225 15.4274 73.164 15.1192 74.2906 15.1192C74.6519 15.1192 75.0451 15.1723 75.4702 15.2786C75.8954 15.3849 76.2886 15.5868 76.6499 15.8844C77.0113 16.1607 77.2557 16.5539 77.3832 17.0641C77.4045 17.0215 77.4257 16.9897 77.447 16.9684C77.4895 16.9472 77.5214 16.9259 77.5427 16.9046C77.8402 16.437 78.1803 16.0438 78.5629 15.725C78.9455 15.4061 79.3706 15.2467 79.8382 15.2467C80.0721 15.2467 80.4015 15.2573 80.8266 15.2786C81.2517 15.2999 81.5599 15.2999 81.7512 15.2786C81.645 15.3636 81.4962 15.5337 81.3049 15.7887C81.1348 16.0438 80.9754 16.3095 80.8266 16.5858C80.6778 16.8409 80.5609 17.0428 80.4759 17.1916C79.902 18.2969 79.3813 19.3915 78.9136 20.4756C78.446 21.5596 78.0847 22.6011 77.8296 23.6001C77.7658 23.8127 77.7233 24.0146 77.7021 24.2059C77.6808 24.3759 77.6702 24.546 77.6702 24.716C77.6702 25.2687 77.8509 25.545 78.2122 25.545C78.5523 25.545 78.9774 25.3324 79.4875 24.9073C80.2315 24.3122 80.8798 23.5682 81.4324 22.6755C82.0063 21.7828 82.5058 20.9219 82.9309 20.093C83.0159 19.9442 83.0903 19.8698 83.1541 19.8698C83.2816 19.8698 83.3454 20.0505 83.3454 20.4118C83.3454 20.5818 83.3135 20.7731 83.2497 20.9857C83.2072 21.1982 83.1328 21.4002 83.0266 21.5915C82.729 22.1016 82.3358 22.7286 81.8469 23.4726C81.3793 24.2165 80.8479 24.9498 80.2527 25.6725C79.6576 26.374 79.0305 26.9691 78.3716 27.458C77.734 27.9469 77.0963 28.1913 76.4586 28.1913ZM70.1139 25.4175C70.1776 25.4387 70.2733 25.4493 70.4008 25.4493C70.8047 25.4493 71.2404 25.2793 71.708 24.9392C72.1756 24.5991 72.6433 24.1634 73.1109 23.632C73.5785 23.0794 73.993 22.5267 74.3543 21.9741C75.2896 20.4862 75.9804 19.3703 76.4267 18.6263C76.8731 17.8824 77.1282 17.4573 77.1919 17.351C77.0857 16.9897 76.8944 16.724 76.618 16.5539C76.363 16.3839 76.0548 16.2989 75.6934 16.2989C75.2258 16.2989 74.7263 16.4264 74.1949 16.6815C73.6848 16.9365 73.249 17.2447 72.8877 17.6061C72.3351 18.1587 71.8037 18.8708 71.2935 19.7422C70.8047 20.6137 70.4008 21.4746 70.082 22.3248C69.7844 23.175 69.6356 23.8871 69.6356 24.461C69.6356 24.9924 69.795 25.3112 70.1139 25.4175ZM76.8303 35.907C76.9365 35.7582 77.0747 35.4926 77.2447 35.11C77.4148 34.7486 77.5955 34.3554 77.7868 33.9303C77.9781 33.5052 78.1375 33.1438 78.265 32.8462C78.6263 31.9535 79.0408 30.8589 79.5085 29.5623C79.9761 28.2869 80.4543 26.9479 80.9432 25.545C81.4321 24.1421 81.8997 22.803 82.3461 21.5277C82.7924 20.2524 83.1856 19.2002 83.5257 18.3713C83.8446 17.6061 84.1209 17.0003 84.3547 16.5539C84.5885 16.0863 84.918 15.7568 85.3431 15.5655C85.7894 15.353 86.459 15.2467 87.3517 15.2467H88.3082C88.0106 15.4593 87.6174 15.9481 87.1285 16.7133C86.6609 17.4573 86.2146 18.2437 85.7894 19.0727C85.9382 18.8814 86.0764 18.7007 86.2039 18.5307C86.3315 18.3394 86.4696 18.1693 86.6184 18.0206C87.2986 17.1916 88.0213 16.5008 88.7865 15.9481C89.5517 15.3955 90.2956 15.1192 91.0183 15.1192C91.6134 15.1192 92.1129 15.3424 92.5168 15.7887C92.9419 16.2351 93.1545 16.9897 93.1545 18.0524C93.1545 19.0302 92.9632 20.0186 92.5806 21.0176C92.2192 21.9953 91.7303 22.9306 91.1139 23.8233C90.4975 24.6948 89.8174 25.4706 89.0734 26.1508C88.9246 26.2996 88.7546 26.4484 88.5633 26.5971C88.3932 26.7247 88.2126 26.8522 88.0213 26.9797C88.7014 27.0435 89.371 26.8841 90.0299 26.5015C90.7101 26.1189 91.3265 25.6513 91.8791 25.0986C92.453 24.546 92.9207 24.0465 93.282 23.6001C93.7071 23.0475 94.1322 22.4098 94.5573 21.6871C95.0037 20.9644 95.365 20.3268 95.6414 19.7741C95.7264 19.6253 95.8008 19.5509 95.8645 19.5509C96.0346 19.5509 96.1196 19.7422 96.1196 20.1248C96.1196 20.4649 96.0133 20.8156 95.8008 21.177C95.6307 21.4958 95.3969 21.8997 95.0993 22.3886C94.8018 22.8774 94.5361 23.3025 94.3023 23.6639C93.3245 25.088 92.1873 26.2571 90.8908 27.171C89.5942 28.085 88.0319 28.542 86.2039 28.542C86.0551 28.542 85.8957 28.542 85.7257 28.542C85.5769 28.542 85.4175 28.5314 85.2474 28.5101C84.7373 28.4676 84.259 28.3401 83.8127 28.1275C83.3663 27.9362 83.0687 27.5643 82.92 27.0116L81.1345 32.5912C80.9007 33.3351 80.6881 33.9515 80.4968 34.4404C80.2843 34.9293 80.0292 35.2906 79.7316 35.5244C79.4128 35.7795 78.9558 35.907 78.3607 35.907H76.8303ZM84.5141 27.171C84.8755 27.171 85.2899 26.9904 85.7576 26.629C86.2252 26.2464 86.6822 25.7788 87.1285 25.2262C87.5962 24.6523 87.9894 24.0996 88.3082 23.5682C88.7971 22.718 89.2116 21.8465 89.5517 20.9538C89.8918 20.0611 90.0618 19.3278 90.0618 18.7539C90.0618 18.1162 89.8067 17.7974 89.2966 17.7974C88.8502 17.7974 88.3614 18.0099 87.83 18.435C87.4474 18.7326 87.0116 19.1684 86.5228 19.7422C86.0551 20.3161 85.5875 20.9644 85.1199 21.6871C84.6735 22.3886 84.3016 23.1112 84.004 23.8552C83.7277 24.5779 83.5895 25.2368 83.5895 25.8319C83.5895 25.9382 83.5895 26.0445 83.5895 26.1508C83.6108 26.2358 83.632 26.3314 83.6533 26.4377C83.7595 26.9266 84.0465 27.171 84.5141 27.171ZM103.082 28.6377C102.019 28.6377 101.03 28.542 100.116 28.3507C99.2025 28.1594 98.4373 27.8406 97.8209 27.3942C97.3958 27.0754 97.0663 26.6715 96.8325 26.1827C96.6199 25.6938 96.5137 25.1943 96.5137 24.6841C96.5137 24.0465 96.6943 23.4513 97.0557 22.8987C97.417 22.346 97.9909 21.9741 98.7774 21.7828C98.8836 21.7615 98.9793 21.7509 99.0643 21.7509C99.1706 21.7296 99.2662 21.719 99.3513 21.719C99.7764 21.719 100.148 21.8147 100.467 22.006C100.807 22.1973 101.041 22.4204 101.169 22.6755C101.084 22.7393 100.967 22.8562 100.818 23.0262C100.669 23.175 100.573 23.3025 100.531 23.4088C100.212 23.9402 100.053 24.4716 100.053 25.003C100.053 25.7257 100.329 26.3208 100.882 26.7884C101.456 27.2348 102.199 27.458 103.113 27.458C103.942 27.458 104.718 27.2561 105.441 26.8522C106.185 26.4271 106.78 25.8638 107.226 25.1624C107.694 24.461 107.928 23.6533 107.928 22.7393C107.928 22.0591 107.768 21.3364 107.45 20.5712C107.173 19.9123 106.791 19.3278 106.302 18.8176C105.834 18.3075 105.388 17.8293 104.963 17.3829C104.389 16.7665 103.836 16.1713 103.305 15.5974C102.795 15.0023 102.37 14.3646 102.029 13.6844C101.711 12.983 101.551 12.1966 101.551 11.3251C101.551 10.4961 101.721 9.68841 102.061 8.90196C102.423 8.1155 102.933 7.44596 103.592 6.89331C104.336 6.25565 105.186 5.80928 106.142 5.55422C107.099 5.29915 108.098 5.17162 109.139 5.17162C110.436 5.17162 111.456 5.34166 112.2 5.68175C112.965 6.00058 113.507 6.41506 113.826 6.9252C114.166 7.43533 114.336 7.97734 114.336 8.55124C114.336 9.10388 114.209 9.63527 113.954 10.1454C113.72 10.6555 113.391 11.0913 112.965 11.4526C112.54 11.7927 112.073 12.0053 111.563 12.0903C111.478 12.1115 111.392 12.1222 111.307 12.1222C111.222 12.1222 111.127 12.1222 111.021 12.1222C110.553 12.1222 110.138 12.0159 109.777 11.8033C109.437 11.5908 109.267 11.2294 109.267 10.7193C109.267 10.6555 109.267 10.5811 109.267 10.4961C109.288 10.4111 109.309 10.3261 109.331 10.2411C109.713 10.2411 110.107 10.1029 110.51 9.82657C110.914 9.55025 111.18 9.24204 111.307 8.90196C111.414 8.62563 111.467 8.37057 111.467 8.13676C111.467 7.56286 111.201 7.1165 110.67 6.79766C110.16 6.45758 109.554 6.28753 108.852 6.28753C108.023 6.28753 107.28 6.4682 106.621 6.82955C105.983 7.16963 105.483 7.62663 105.122 8.20052C104.761 8.75317 104.58 9.35895 104.58 10.0179C104.58 10.6768 104.782 11.3145 105.186 11.9309C105.526 12.4197 105.951 12.9299 106.461 13.4613C106.971 13.9714 107.492 14.4709 108.023 14.9598C108.555 15.4274 109.012 15.8631 109.394 16.267C110.266 17.1172 110.893 17.9887 111.276 18.8814C111.658 19.7529 111.849 20.6137 111.849 21.4639C111.849 22.4417 111.616 23.3663 111.148 24.2378C110.702 25.088 110.075 25.8426 109.267 26.5015C108.459 27.1604 107.524 27.6812 106.461 28.0638C105.398 28.4464 104.272 28.6377 103.082 28.6377ZM115.211 28.1913C114.595 28.1913 114.127 27.9469 113.808 27.458C113.66 27.2242 113.553 26.9479 113.489 26.629C113.426 26.3102 113.394 25.9807 113.394 25.6406C113.394 25.3006 113.415 24.9605 113.458 24.6204C113.5 24.259 113.553 23.9083 113.617 23.5682C113.723 23.0156 113.84 22.5161 113.968 22.0697C114.117 21.6021 114.265 21.1557 114.414 20.7306V20.6987C114.244 21.0176 114.031 21.3683 113.776 21.7509C113.521 22.1122 113.341 22.3779 113.234 22.548C113.086 22.7818 112.969 22.8987 112.884 22.8987C112.799 22.8987 112.756 22.803 112.756 22.6117C112.756 22.1866 112.884 21.719 113.139 21.2089C113.309 20.8688 113.543 20.4331 113.84 19.9017C114.138 19.349 114.446 18.7539 114.765 18.1162C115.084 17.4785 115.36 16.8621 115.594 16.267H113.458C113.351 16.267 113.33 16.182 113.394 16.0119C113.458 15.8419 113.553 15.6825 113.681 15.5337C113.808 15.3636 113.904 15.2786 113.968 15.2786H116.391C116.625 14.726 116.89 14.1308 117.188 13.4931C117.507 12.8555 117.857 12.2603 118.24 11.7077C118.644 11.1338 119.08 10.6662 119.547 10.3048C120.015 9.94347 120.514 9.7628 121.046 9.7628C121.28 9.7628 121.567 9.7628 121.907 9.7628C122.268 9.7628 122.491 9.75217 122.576 9.73092C122.13 10.0285 121.609 10.6236 121.014 11.5164C120.419 12.3879 119.77 13.6419 119.069 15.2786H122.289C122.353 15.2786 122.332 15.3636 122.225 15.5337C122.119 15.6825 121.981 15.8419 121.811 16.0119C121.662 16.182 121.513 16.267 121.365 16.267H118.623C118.346 16.9684 118.038 17.7336 117.698 18.5626C117.379 19.3915 117.082 20.2099 116.805 21.0176C116.55 21.804 116.359 22.5267 116.231 23.1856C116.146 23.5895 116.104 23.9615 116.104 24.3015C116.104 25.1093 116.359 25.5131 116.869 25.5131C117.209 25.5131 117.613 25.3431 118.081 25.003C118.548 24.6629 119.016 24.1953 119.484 23.6001C119.909 23.0475 120.312 22.4523 120.695 21.8147C121.099 21.177 121.439 20.5925 121.715 20.0611C121.8 19.9123 121.875 19.8379 121.939 19.8379C122.066 19.8379 122.13 20.0079 122.13 20.348C122.13 20.5181 122.098 20.72 122.034 20.9538C121.992 21.1664 121.907 21.3789 121.779 21.5915C121.482 22.1016 121.131 22.6649 120.727 23.2813C120.323 23.8764 119.909 24.4716 119.484 25.0667C119.186 25.4493 118.793 25.8851 118.304 26.374C117.836 26.8628 117.326 27.2879 116.773 27.6493C116.242 28.0106 115.721 28.1913 115.211 28.1913ZM124.203 28.2551C123.225 28.2551 122.375 27.9469 121.652 27.3305C120.951 26.714 120.6 25.7257 120.6 24.3653C120.6 23.3663 120.781 22.3248 121.142 21.2408C121.504 20.1567 122.014 19.1471 122.673 18.2119C123.353 17.2766 124.171 16.5114 125.128 15.9163C126.084 15.3211 127.157 15.0235 128.348 15.0235C129.326 15.0235 130.08 15.2148 130.612 15.5974C131.164 15.9588 131.557 16.4476 131.791 17.0641C132.025 17.6805 132.142 18.3394 132.142 19.0408C132.142 19.5722 132.078 20.1142 131.951 20.6669C131.844 21.1982 131.685 21.7296 131.472 22.261C131.834 22.6861 132.291 22.8987 132.843 22.8987C133.438 22.8987 133.991 22.6755 134.501 22.2291C134.799 21.9741 135.065 21.6552 135.298 21.2726C135.553 20.8688 135.777 20.4968 135.968 20.1567C136.032 20.0292 136.106 19.9654 136.191 19.9654C136.297 19.9654 136.35 20.1142 136.35 20.4118C136.35 20.6031 136.319 20.8263 136.255 21.0813C136.212 21.3364 136.106 21.5915 135.936 21.8465C135.617 22.3992 135.288 22.8243 134.948 23.1219C134.608 23.3982 134.225 23.6214 133.8 23.7914C133.481 23.9189 133.141 23.9827 132.78 23.9827C132.121 23.9827 131.525 23.7808 130.994 23.3769C130.824 23.7383 130.612 24.1102 130.356 24.4928C129.74 25.5344 128.943 26.4271 127.965 27.171C126.987 27.8937 125.733 28.2551 124.203 28.2551ZM125.415 27.0435C125.903 27.0435 126.371 26.8841 126.817 26.5653C127.285 26.2252 127.71 25.8107 128.093 25.3218C128.475 24.8329 128.805 24.3228 129.081 23.7914C129.379 23.26 129.623 22.7924 129.814 22.3886C129.092 21.7721 128.73 20.9963 128.73 20.0611C128.73 19.4447 128.9 18.9664 129.241 18.6263C129.581 18.2862 130.048 18.1375 130.643 18.18C130.622 17.6911 130.495 17.2872 130.261 16.9684C130.027 16.6496 129.644 16.4902 129.113 16.4902C128.624 16.4902 128.157 16.6389 127.71 16.9365C127.285 17.2341 126.881 17.6167 126.499 18.0843C126.137 18.5307 125.808 18.9983 125.51 19.4872C125.234 19.9548 125 20.3799 124.809 20.7625C124.532 21.3152 124.277 21.9847 124.044 22.7712C123.81 23.5576 123.693 24.2909 123.693 24.9711C123.693 25.5662 123.81 26.0658 124.044 26.4696C124.299 26.8522 124.756 27.0435 125.415 27.0435ZM138.195 28.3188C137.196 28.3188 136.388 28.1382 135.772 27.7768C135.155 27.3942 134.709 26.8947 134.433 26.2783C134.178 25.6406 134.05 24.9605 134.05 24.2378C134.05 23.5151 134.156 22.7818 134.369 22.0378C134.582 21.2939 134.868 20.5925 135.23 19.9335C135.974 18.5945 136.888 17.4892 137.972 16.6177C139.077 15.7462 140.427 15.3105 142.021 15.3105C143.02 15.3105 143.796 15.5655 144.348 16.0757C144.901 16.5858 145.177 17.181 145.177 17.8611C145.177 18.4988 144.986 19.0833 144.604 19.6147C144.242 20.1461 143.753 20.4118 143.137 20.4118C142.797 20.4118 142.499 20.3161 142.244 20.1248C141.989 19.9335 141.862 19.636 141.862 19.2321C141.862 19.1683 141.862 19.1046 141.862 19.0408C141.883 18.9558 141.904 18.8708 141.925 18.7858C142.053 18.7645 142.234 18.7326 142.467 18.6901C142.722 18.6263 142.924 18.4775 143.073 18.2437C143.349 17.8611 143.488 17.4785 143.488 17.0959C143.488 16.8621 143.413 16.6708 143.264 16.522C143.137 16.352 142.914 16.267 142.595 16.267C142.021 16.267 141.436 16.4795 140.841 16.9046C140.246 17.3085 139.683 17.8505 139.151 18.5307C138.641 19.2109 138.195 19.9548 137.812 20.7625C137.217 22.0591 136.92 23.2494 136.92 24.3334C136.92 25.1199 137.1 25.7682 137.462 26.2783C137.823 26.7672 138.397 27.0116 139.183 27.0116C140.182 27.0116 141.118 26.6715 141.989 25.9914C142.882 25.2899 143.679 24.4822 144.38 23.5682C144.848 22.9731 145.262 22.3673 145.624 21.7509C146.006 21.1345 146.325 20.5712 146.58 20.0611C146.665 19.9123 146.74 19.8379 146.803 19.8379C146.931 19.8379 146.995 20.0186 146.995 20.3799C146.995 20.55 146.963 20.7519 146.899 20.9857C146.857 21.1982 146.782 21.4002 146.676 21.5915C146.315 22.1866 145.943 22.7818 145.56 23.3769C145.199 23.9721 144.805 24.5354 144.38 25.0667C143.658 26.002 142.807 26.7778 141.83 27.3942C140.852 28.0106 139.64 28.3188 138.195 28.3188ZM143.468 28C143.702 27.5749 143.968 27.0329 144.265 26.374C144.542 25.715 144.818 25.003 145.094 24.2378C145.392 23.4513 145.658 22.6968 145.892 21.9741C146.423 20.3374 146.965 18.722 147.518 17.1278C148.091 15.5337 148.665 14.1521 149.239 12.983C149.473 12.4729 149.771 11.8565 150.132 11.1338C150.493 10.3898 150.897 9.62464 151.344 8.83819C151.811 8.05174 152.311 7.31842 152.842 6.63825C153.395 5.93682 153.979 5.37355 154.596 4.94844C155.233 4.52333 155.892 4.31077 156.572 4.31077C157.253 4.31077 157.71 4.45956 157.943 4.75714C158.198 5.05471 158.326 5.42669 158.326 5.87305C158.326 6.36193 158.22 6.88269 158.007 7.43533C157.795 7.98797 157.593 8.44496 157.401 8.80631C156.976 9.61401 156.424 10.528 155.743 11.5483C155.085 12.5473 154.394 13.4825 153.671 14.354C153.31 14.8004 152.874 15.3105 152.364 15.8844C151.854 16.437 151.344 16.9684 150.833 17.4785C150.345 17.9887 149.919 18.4244 149.558 18.7858L148.984 20.3799C149.537 19.6572 150.121 19.0089 150.738 18.435C151.354 17.8611 152.024 17.2872 152.746 16.7133C153.278 16.2882 153.83 15.9694 154.404 15.7568C155 15.5443 155.542 15.438 156.03 15.438C156.392 15.438 156.721 15.4912 157.019 15.5974C157.338 15.7037 157.571 15.8738 157.72 16.1076C157.826 16.2563 157.901 16.4158 157.943 16.5858C157.986 16.7559 158.007 16.9259 158.007 17.0959C158.007 17.436 157.943 17.7655 157.816 18.0843C157.54 18.7432 157.136 19.3065 156.604 19.7741C156.094 20.2205 155.51 20.5606 154.851 20.7944C154.617 20.8794 154.309 20.9751 153.926 21.0813C153.544 21.1876 153.203 21.262 152.906 21.3045C152.948 21.6021 152.98 21.8997 153.001 22.1973C153.044 22.4948 153.087 22.7924 153.129 23.09C153.257 23.8127 153.416 24.4291 153.607 24.9392C153.82 25.4493 154.149 25.7044 154.596 25.7044C155 25.7044 155.542 25.4387 156.222 24.9073C156.711 24.5247 157.136 24.089 157.497 23.6001C157.922 23.0475 158.326 22.4629 158.709 21.8465C159.091 21.2089 159.421 20.6244 159.697 20.093C159.782 19.9442 159.856 19.8698 159.92 19.8698C160.048 19.8698 160.111 20.0398 160.111 20.3799C160.111 20.5712 160.08 20.7838 160.016 21.0176C159.973 21.2301 159.888 21.4427 159.761 21.6552C159.463 22.1654 159.112 22.718 158.709 23.3132C158.326 23.9083 157.922 24.4928 157.497 25.0667C157.263 25.3856 156.966 25.7363 156.604 26.1189C156.243 26.5015 155.86 26.8522 155.457 27.171C155.095 27.4474 154.659 27.7024 154.149 27.9362C153.639 28.1488 153.14 28.2551 152.651 28.2551C152.268 28.2551 151.907 28.17 151.567 28C151.248 27.83 150.982 27.543 150.77 27.1392C150.536 26.6928 150.355 26.1614 150.228 25.545C150.1 24.9286 150.036 24.3122 150.036 23.6958C150.036 23.3557 150.047 23.0262 150.068 22.7074C150.111 22.3673 150.175 22.0591 150.26 21.7828C150.366 21.4214 150.472 21.177 150.578 21.0495C150.685 20.9219 150.823 20.8582 150.993 20.8582C151.609 20.8369 152.215 20.7519 152.81 20.6031C153.405 20.4331 153.905 20.1674 154.309 19.806C154.798 19.3809 155.042 18.9027 155.042 18.3713C155.042 18.1375 154.957 17.9355 154.787 17.7655C154.638 17.5742 154.383 17.4785 154.022 17.4785C153.533 17.4785 153.055 17.638 152.587 17.9568C152.119 18.2756 151.673 18.6901 151.248 19.2002C150.823 19.7104 150.43 20.2418 150.068 20.7944C149.707 21.3258 149.399 21.8147 149.144 22.261C148.952 22.5799 148.74 22.9943 148.506 23.5045C148.272 24.0146 148.028 24.546 147.773 25.0986C147.518 25.6513 147.263 26.1508 147.007 26.5971C146.752 27.0435 146.508 27.373 146.274 27.5855C145.998 27.8618 145.711 28 145.413 28H143.468ZM150.387 16.6177C151.45 15.3849 152.491 14.0883 153.512 12.7279C154.532 11.3676 155.403 9.97536 156.126 8.55124C156.19 8.44496 156.296 8.22178 156.445 7.88169C156.594 7.54161 156.732 7.16963 156.859 6.76578C157.008 6.36193 157.083 6.01121 157.083 5.71363C157.083 5.33104 156.934 5.13974 156.636 5.13974C156.339 5.13974 155.977 5.3948 155.552 5.90493C155.148 6.41507 154.713 7.09524 154.245 7.94546C153.799 8.77442 153.342 9.69904 152.874 10.7193C152.406 11.7183 151.96 12.7386 151.535 13.7801C151.11 14.8003 150.727 15.7462 150.387 16.6177Z" fill="#58A9F8"/>
<path d="M162.255 4.13086L162.752 5.47347L164.095 5.97028L162.752 6.46708L162.255 7.80969L161.759 6.46708L160.416 5.97028L161.759 5.47347L162.255 4.13086Z" fill="#58A9F8" fill-opacity="0.8"/>
<path d="M166.547 0.452148L167.21 2.24229L169 2.9047L167.21 3.56712L166.547 5.35726L165.885 3.56712L164.095 2.9047L165.885 2.24229L166.547 0.452148Z" fill="#58A9F8"/>
<path d="M160.416 7.80957L160.747 8.70464L161.642 9.03585L160.747 9.36705L160.416 10.2621L160.085 9.36705L159.19 9.03585L160.085 8.70464L160.416 7.80957Z" fill="#58A9F8" fill-opacity="0.5"/>
<path d="M159.803 10.876L159.969 11.3235L160.416 11.4891L159.969 11.6547L159.803 12.1023L159.637 11.6547L159.19 11.4891L159.637 11.3235L159.803 10.876Z" fill="#58A9F8" fill-opacity="0.25"/>
</g>
<defs>
<clipPath id="clip0_164_8">
<rect width="169" height="36.4" fill="white"/>
</clipPath>
</defs>
</svg>
